# xmcd
#
# Track frame offsets:
# 150
# 17046
# 37628
#
# Disc length: 721 seconds
#
#
# Revision: 0
# Processed by: cddbd v1.5.1PL2 Copyright (c) Steve Scherf et al.
# Submitted via: FreeRIP 2.944 
#
DISCID=1302cf03
DTITLE=Solid Solutions - - Don't Speak
DYEAR=2003
DGENRE=
TTITLE0=_Don't Speak (Sonic Solutions Radio Mix)
TTITLE1=_Don't Speak (D.H.T. Mix)
TTITLE2=_Don't Speak (DJ Yves Hardstyle Radio Mix)
EXTD=
EXTT0=
EXTT1=
EXTT2=
PLAYORDER=
